<?xml version="1.0" standalone="no"?>
<svg xmlns:xlink="http://www.w3.org/1999/xlink" id="wave" style="transform:rotate(0deg); transition: 0.3s" viewBox="0 0 1440 250" version="1.1" xmlns="http://www.w3.org/2000/svg"><defs><linearGradient id="sw-gradient-0" x1="0" x2="0" y1="1" y2="0"><stop stop-color="rgba(255, 255, 255, 1)" offset="0%"/><stop stop-color="rgba(255, 255, 255, 1)" offset="100%"/></linearGradient></defs><path style="transform:translate(0, 0px); opacity:1" fill="url(#sw-gradient-0)" d="M0,125L80,129.2C160,133,320,142,480,125C640,108,800,67,960,45.8C1120,25,1280,25,1440,25C1600,25,1760,25,1920,33.3C2080,42,2240,58,2400,91.7C2560,125,2720,175,2880,162.5C3040,150,3200,75,3360,41.7C3520,8,3680,17,3840,45.8C4000,75,4160,125,4320,141.7C4480,158,4640,142,4800,120.8C4960,100,5120,75,5280,87.5C5440,100,5600,150,5760,175C5920,200,6080,200,6240,179.2C6400,158,6560,117,6720,100C6880,83,7040,92,7200,116.7C7360,142,7520,183,7680,204.2C7840,225,8000,225,8160,216.7C8320,208,8480,192,8640,158.3C8800,125,8960,75,9120,54.2C9280,33,9440,42,9600,62.5C9760,83,9920,117,10080,108.3C10240,100,10400,50,10560,54.2C10720,58,10880,117,11040,125C11200,133,11360,92,11440,70.8L11520,50L11520,250L11440,250C11360,250,11200,250,11040,250C10880,250,10720,250,10560,250C10400,250,10240,250,10080,250C9920,250,9760,250,9600,250C9440,250,9280,250,9120,250C8960,250,8800,250,8640,250C8480,250,8320,250,8160,250C8000,250,7840,250,7680,250C7520,250,7360,250,7200,250C7040,250,6880,250,6720,250C6560,250,6400,250,6240,250C6080,250,5920,250,5760,250C5600,250,5440,250,5280,250C5120,250,4960,250,4800,250C4640,250,4480,250,4320,250C4160,250,4000,250,3840,250C3680,250,3520,250,3360,250C3200,250,3040,250,2880,250C2720,250,2560,250,2400,250C2240,250,2080,250,1920,250C1760,250,1600,250,1440,250C1280,250,1120,250,960,250C800,250,640,250,480,250C320,250,160,250,80,250L0,250Z"/></svg>